<svg id="ぼかし" xmlns="http://www.w3.org/2000/svg" xmlns:svg="http://www.w3.org/2000/svg" xmlns:xlink="http://www.w3.org/1999/xlink" viewBox="0 0 517 70.43"><defs><div is="style">.cls-1{fill:none;}.cls-2{fill:#4b4b4b;}.cls-3{clip-path:url(#clip-path);}.cls-4{fill:#fff;}</div><clipPath id="clip-path"><rect class="cls-1" y="29.22" width="517" height="6"/></clipPath></defs><path class="cls-2" d="M86.37,14.09A35.73,35.73,0,0,0,63.7,5.89a29.33,29.33,0,0,0,0,58.66,35.79,35.79,0,0,0,22.67-8.2l.48.48V63.2A38.71,38.71,0,0,1,63.7,70.43C43.92,70.43,28,54.51,28,35.22S43.92,0,63.7,0A38.65,38.65,0,0,1,86.85,7.24V13.6Z"/><path class="cls-2" d="M172.81,35.22c0,19.39-16,35.21-35.7,35.21s-35.69-15.82-35.69-35.21S117.43,0,137.11,0,172.81,15.82,172.81,35.22Zm-64.93,0A29.29,29.29,0,1,0,137.11,5.89,29.36,29.36,0,0,0,107.88,35.22Z"/><path class="cls-2" d="M194.9,1.45l1,.48,43.6,58.18V1.93l.49-.48h4.72l.49.48V68.5l-.49.48h-5l-1-.48L195,10.32V68.5l-.49.48h-4.72l-.49-.48V1.93l.49-.48Z"/><path class="cls-2" d="M319.93,14.09a35.73,35.73,0,0,0-22.67-8.2,29.33,29.33,0,0,0,0,58.66,35.79,35.79,0,0,0,22.67-8.2l.49.48V63.2a38.72,38.72,0,0,1-23.16,7.23c-19.78,0-35.7-15.92-35.7-35.21S277.48,0,297.26,0a38.66,38.66,0,0,1,23.16,7.24V13.6Z"/><path class="cls-2" d="M374.92,1.45l.48.48V6.56l-.48.48H343.57V29H367.2l.49.48v4.63l-.49.49H343.57V63.39h34.25l.48.48V68.5l-.48.48H338.36l-.49-.48V1.93l.49-.48Z"/><path class="cls-2" d="M412,1.45c15,0,23.63,8.2,23.63,19.78S427,40.91,412,40.91H399.42V68.5l-.48.48h-4.73l-.48-.48V1.93l.39-.48ZM399.42,35.31H412c10.8,0,17.27-5.3,17.27-14.08S422.77,7,412,7H399.42Z"/><path class="cls-2" d="M497.93,1.45l.48.48V6.56l-.48.48H474.19V68.5l-.48.48h-4.63l-.48-.48V7H444.86l-.48-.48V1.93l.48-.48Z"/><rect class="cls-2" y="29.22" width="517" height="6"/><g class="cls-3"><path class="cls-4" d="M86.37,14.09A35.73,35.73,0,0,0,63.7,5.89a29.33,29.33,0,0,0,0,58.66,35.79,35.79,0,0,0,22.67-8.2l.48.48V63.2A38.71,38.71,0,0,1,63.7,70.43C43.92,70.43,28,54.51,28,35.22S43.92,0,63.7,0A38.65,38.65,0,0,1,86.85,7.24V13.6Z"/><path class="cls-4" d="M172.81,35.22c0,19.39-16,35.21-35.7,35.21s-35.69-15.82-35.69-35.21S117.43,0,137.11,0,172.81,15.82,172.81,35.22Zm-64.93,0A29.29,29.29,0,1,0,137.11,5.89,29.36,29.36,0,0,0,107.88,35.22Z"/><path class="cls-4" d="M194.9,1.45l1,.48,43.6,58.18V1.93l.49-.48h4.72l.49.48V68.5l-.49.48h-5l-1-.48L195,10.32V68.5l-.49.48h-4.72l-.49-.48V1.93l.49-.48Z"/><path class="cls-4" d="M319.93,14.09a35.73,35.73,0,0,0-22.67-8.2,29.33,29.33,0,0,0,0,58.66,35.79,35.79,0,0,0,22.67-8.2l.49.48V63.2a38.72,38.72,0,0,1-23.16,7.23c-19.78,0-35.7-15.92-35.7-35.21S277.48,0,297.26,0a38.66,38.66,0,0,1,23.16,7.24V13.6Z"/><path class="cls-4" d="M374.92,1.45l.48.48V6.56l-.48.48H343.57V29H367.2l.49.48v4.63l-.49.49H343.57V63.39h34.25l.48.48V68.5l-.48.48H338.36l-.49-.48V1.93l.49-.48Z"/><path class="cls-4" d="M412,1.45c15,0,23.63,8.2,23.63,19.78S427,40.91,412,40.91H399.42V68.5l-.48.48h-4.73l-.48-.48V1.93l.39-.48ZM399.42,35.31H412c10.8,0,17.27-5.3,17.27-14.08S422.77,7,412,7H399.42Z"/><path class="cls-4" d="M497.93,1.45l.48.48V6.56l-.48.48H474.19V68.5l-.48.48h-4.63l-.48-.48V7H444.86l-.48-.48V1.93l.48-.48Z"/></g></svg>