<svg id="ぼかし" xmlns="http://www.w3.org/2000/svg" xmlns:xlink="http://www.w3.org/1999/xlink" viewBox="0 0 406.77 70.43"><defs><div is="style">.cls-1{fill:none;}.cls-2{fill:#4b4b4b;}.cls-3{clip-path:url(#clip-path);}.cls-4{fill:#fff;}</div><clipPath id="clip-path"><rect class="cls-1" y="28.59" width="406.77" height="6"/></clipPath></defs><path class="cls-2" d="M86.37,14.09A35.73,35.73,0,0,0,63.7,5.89a29.33,29.33,0,0,0,0,58.66,35.79,35.79,0,0,0,22.67-8.2l.48.48V63.2A38.71,38.71,0,0,1,63.7,70.43C43.92,70.43,28,54.51,28,35.22S43.92,0,63.7,0A38.65,38.65,0,0,1,86.85,7.24V13.6Z"/><path class="cls-2" d="M172.81,35.22c0,19.39-16,35.21-35.7,35.21s-35.69-15.82-35.69-35.21S117.43,0,137.11,0,172.81,15.82,172.81,35.22Zm-64.93,0A29.29,29.29,0,1,0,137.11,5.89,29.36,29.36,0,0,0,107.88,35.22Z"/><path class="cls-2" d="M226.35,1.45l.48.48V6.56l-.48.48H195V29h23.63l.49.48v4.63l-.49.49H195V68.5l-.49.48h-4.72l-.49-.48V1.93l.49-.48Z"/><path class="cls-2" d="M277.39,1.45l.48.48V6.56l-.48.48H246V29h23.64l.48.48v4.63l-.48.49H246V68.5l-.48.48h-4.73l-.48-.48V1.93l.48-.48Z"/><path class="cls-2" d="M328.42,1.45l.48.48V6.56l-.48.48H297.06V29H320.7l.48.48v4.63l-.48.49H297.06V63.39h34.26l.48.48V68.5l-.48.48H291.85l-.48-.48V1.93l.48-.48Z"/><path class="cls-2" d="M384.28,1.45l.48.48V6.56l-.48.48H352.92V29h23.64l.48.48v4.63l-.48.49H352.92V63.39h34.25l.49.48V68.5l-.49.48H347.71l-.48-.48V1.93l.48-.48Z"/><rect class="cls-2" y="28.59" width="406.77" height="6"/><g class="cls-3"><path class="cls-4" d="M86.37,14.09A35.73,35.73,0,0,0,63.7,5.89a29.33,29.33,0,0,0,0,58.66,35.79,35.79,0,0,0,22.67-8.2l.48.48V63.2A38.71,38.71,0,0,1,63.7,70.43C43.92,70.43,28,54.51,28,35.22S43.92,0,63.7,0A38.65,38.65,0,0,1,86.85,7.24V13.6Z"/><path class="cls-4" d="M172.81,35.22c0,19.39-16,35.21-35.7,35.21s-35.69-15.82-35.69-35.21S117.43,0,137.11,0,172.81,15.82,172.81,35.22Zm-64.93,0A29.29,29.29,0,1,0,137.11,5.89,29.36,29.36,0,0,0,107.88,35.22Z"/><path class="cls-4" d="M226.35,1.45l.48.48V6.56l-.48.48H195V29h23.63l.49.48v4.63l-.49.49H195V68.5l-.49.48h-4.72l-.49-.48V1.93l.49-.48Z"/><path class="cls-4" d="M277.39,1.45l.48.48V6.56l-.48.48H246V29h23.64l.48.48v4.63l-.48.49H246V68.5l-.48.48h-4.73l-.48-.48V1.93l.48-.48Z"/><path class="cls-4" d="M328.42,1.45l.48.48V6.56l-.48.48H297.06V29H320.7l.48.48v4.63l-.48.49H297.06V63.39h34.26l.48.48V68.5l-.48.48H291.85l-.48-.48V1.93l.48-.48Z"/><path class="cls-4" d="M384.28,1.45l.48.48V6.56l-.48.48H352.92V29h23.64l.48.48v4.63l-.48.49H352.92V63.39h34.25l.49.48V68.5l-.49.48H347.71l-.48-.48V1.93l.48-.48Z"/></g></svg>