<svg id="ぼかし" xmlns="http://www.w3.org/2000/svg" xmlns:xlink="http://www.w3.org/1999/xlink" viewBox="0 0 414.86 70.43"><defs><div is="style">.cls-1{fill:none;}.cls-2{fill:#4b4b4b;}.cls-3{clip-path:url(#clip-path);}.cls-4{fill:#fff;}</div><clipPath id="clip-path"><rect class="cls-1" y="28.96" width="414.86" height="6"/></clipPath></defs><path class="cls-2" d="M60.19,1.45l.48.48L87.49,68.5,87,69H81.9l-.49-.48L73.5,49H41.76L33.94,68.5l-.48.48H28.25l-.48-.48L54.59,1.93l.48-.48Zm-16.11,42h27.2L57.68,8.88Z"/><path class="cls-2" d="M155.51,14.09a35.78,35.78,0,0,0-22.68-8.2,29.33,29.33,0,0,0,0,58.66,35.84,35.84,0,0,0,22.68-8.2l.48.48V63.2a38.72,38.72,0,0,1-23.16,7.23c-19.78,0-35.69-15.92-35.69-35.21S113.05,0,132.83,0A38.66,38.66,0,0,1,156,7.24V13.6Z"/><path class="cls-2" d="M228.92,14.09a35.73,35.73,0,0,0-22.67-8.2,29.33,29.33,0,0,0,0,58.66,35.79,35.79,0,0,0,22.67-8.2l.49.48V63.2a38.74,38.74,0,0,1-23.16,7.23c-19.78,0-35.7-15.92-35.7-35.21S186.47,0,206.25,0a38.68,38.68,0,0,1,23.16,7.24V13.6Z"/><path class="cls-2" d="M283.91,1.45l.48.48V6.56l-.48.48H252.56V29h23.63l.49.48v4.63l-.49.49H252.56V63.39h34.25l.48.48V68.5l-.48.48H247.35l-.49-.48V1.93l.49-.48Z"/><path class="cls-2" d="M329.64,12.93c-3.09-4.34-6.56-7-12-7A10.34,10.34,0,0,0,307.25,16.4c0,12.83,32.13,12.64,32.13,33.29a20.71,20.71,0,0,1-20.74,20.74c-9.65,0-16.88-5.31-20.26-14l4.05-3h1c2.89,7.24,8.49,11.1,15.24,11.1,8.1,0,14.28-6.47,14.28-14.86,0-15.44-32-15-32-33.29A16.53,16.53,0,0,1,317.67,0c7.72,0,13.51,4.34,16.89,10.13l-4,2.8Z"/><path class="cls-2" d="M382.8,12.93c-3.09-4.34-6.57-7-12-7A10.33,10.33,0,0,0,360.41,16.4c0,12.83,32.13,12.64,32.13,33.29A20.71,20.71,0,0,1,371.8,70.43c-9.65,0-16.89-5.31-20.26-14l4-3h1c2.9,7.24,8.49,11.1,15.25,11.1,8.1,0,14.28-6.47,14.28-14.86,0-15.44-32-15-32-33.29A16.54,16.54,0,0,1,370.83,0c7.72,0,13.51,4.34,16.89,10.13l-4,2.8Z"/><rect class="cls-2" y="28.96" width="414.86" height="6"/><g class="cls-3"><path class="cls-4" d="M60.19,1.45l.48.48L87.49,68.5,87,69H81.9l-.49-.48L73.5,49H41.76L33.94,68.5l-.48.48H28.25l-.48-.48L54.59,1.93l.48-.48Zm-16.11,42h27.2L57.68,8.88Z"/><path class="cls-4" d="M155.51,14.09a35.78,35.78,0,0,0-22.68-8.2,29.33,29.33,0,0,0,0,58.66,35.84,35.84,0,0,0,22.68-8.2l.48.48V63.2a38.72,38.72,0,0,1-23.16,7.23c-19.78,0-35.69-15.92-35.69-35.21S113.05,0,132.83,0A38.66,38.66,0,0,1,156,7.24V13.6Z"/><path class="cls-4" d="M228.92,14.09a35.73,35.73,0,0,0-22.67-8.2,29.33,29.33,0,0,0,0,58.66,35.79,35.79,0,0,0,22.67-8.2l.49.48V63.2a38.74,38.74,0,0,1-23.16,7.23c-19.78,0-35.7-15.92-35.7-35.21S186.47,0,206.25,0a38.68,38.68,0,0,1,23.16,7.24V13.6Z"/><path class="cls-4" d="M283.91,1.45l.48.48V6.56l-.48.48H252.56V29h23.63l.49.48v4.63l-.49.49H252.56V63.39h34.25l.48.48V68.5l-.48.48H247.35l-.49-.48V1.93l.49-.48Z"/><path class="cls-4" d="M329.64,12.93c-3.09-4.34-6.56-7-12-7A10.34,10.34,0,0,0,307.25,16.4c0,12.83,32.13,12.64,32.13,33.29a20.71,20.71,0,0,1-20.74,20.74c-9.65,0-16.88-5.31-20.26-14l4.05-3h1c2.89,7.24,8.49,11.1,15.24,11.1,8.1,0,14.28-6.47,14.28-14.86,0-15.44-32-15-32-33.29A16.53,16.53,0,0,1,317.67,0c7.72,0,13.51,4.34,16.89,10.13l-4,2.8Z"/><path class="cls-4" d="M382.8,12.93c-3.09-4.34-6.57-7-12-7A10.33,10.33,0,0,0,360.41,16.4c0,12.83,32.13,12.64,32.13,33.29A20.71,20.71,0,0,1,371.8,70.43c-9.65,0-16.89-5.31-20.26-14l4-3h1c2.9,7.24,8.49,11.1,15.25,11.1,8.1,0,14.28-6.47,14.28-14.86,0-15.44-32-15-32-33.29A16.54,16.54,0,0,1,370.83,0c7.72,0,13.51,4.34,16.89,10.13l-4,2.8Z"/></g></svg>