<svg id="ぼかし" xmlns="http://www.w3.org/2000/svg" xmlns:xlink="http://www.w3.org/1999/xlink" viewBox="0 0 325.82 68.98"><defs><div is="style">.cls-1{fill:none;}.cls-2{fill:#4b4b4b;}.cls-3{clip-path:url(#clip-path);}.cls-4{fill:#fff;}</div><clipPath id="clip-path"><rect class="cls-1" y="27.49" width="325.82" height="6"/></clipPath></defs><path class="cls-2" d="M32.92,0l1,.48,26,32.23L85.7.48l1-.48H91.1l.48.48V67.05l-.48.49H86.37l-.48-.49V8.39l-25.57,32h-1l-25.67-32V67.05l-.48.49H28.48L28,67.05V.48L28.48,0Z"/><path class="cls-2" d="M147.92,0l.48.48V5.11l-.48.49H116.56v22H140.2l.48.49v4.63l-.48.48H116.56V61.94h34.25l.49.48v4.63l-.49.49H111.35l-.48-.49V.48l.48-.48Z"/><path class="cls-2" d="M172.32,0l1,.48L216.9,58.66V.48l.48-.48h4.73l.48.48V67.05l-.48.49h-5l-1-.49L172.42,8.88V67.05l-.48.49h-4.73l-.48-.49V.48l.48-.48Z"/><path class="cls-2" d="M247.09,0l.48.48V36.66c0,17,9.17,26.44,22.29,26.44s22.19-9.46,22.19-26.44V.48l.48-.48h4.73l.48.48V37.63c0,19.78-11.48,31.35-27.88,31.35s-28-11.57-28-31.35V.48l.48-.48Z"/><rect class="cls-2" y="27.49" width="325.82" height="6"/><g class="cls-3"><path class="cls-4" d="M32.92,0l1,.48,26,32.23L85.7.48l1-.48H91.1l.48.48V67.05l-.48.49H86.37l-.48-.49V8.39l-25.57,32h-1l-25.67-32V67.05l-.48.49H28.48L28,67.05V.48L28.48,0Z"/><path class="cls-4" d="M147.92,0l.48.48V5.11l-.48.49H116.56v22H140.2l.48.49v4.63l-.48.48H116.56V61.94h34.25l.49.48v4.63l-.49.49H111.35l-.48-.49V.48l.48-.48Z"/><path class="cls-4" d="M172.32,0l1,.48L216.9,58.66V.48l.48-.48h4.73l.48.48V67.05l-.48.49h-5l-1-.49L172.42,8.88V67.05l-.48.49h-4.73l-.48-.49V.48l.48-.48Z"/><path class="cls-4" d="M247.09,0l.48.48V36.66c0,17,9.17,26.44,22.29,26.44s22.19-9.46,22.19-26.44V.48l.48-.48h4.73l.48.48V37.63c0,19.78-11.48,31.35-27.88,31.35s-28-11.57-28-31.35V.48l.48-.48Z"/></g></svg>