<svg id="ぼかし" xmlns="http://www.w3.org/2000/svg" xmlns:xlink="http://www.w3.org/1999/xlink" viewBox="0 0 512 70.43"><defs><div is="style">.cls-1{fill:none;}.cls-2{fill:#4b4b4b;}.cls-3{clip-path:url(#clip-path);}.cls-4{fill:#fff;}</div><clipPath id="clip-path"><rect class="cls-1" y="32.75" width="512" height="6"/></clipPath></defs><path class="cls-2" d="M46,1.45c15.05,0,23.63,8.2,23.63,19.78S61.06,40.91,46,40.91H33.46V68.5L33,69H28.25l-.48-.48V1.93l.39-.48ZM33.46,35.31H46c10.8,0,17.26-5.3,17.26-14.08S56.81,7,46,7H33.46Z"/><path class="cls-2" d="M100.51,1.45c13,0,21.23,7.23,21.23,18.33,0,10.23-8.69,15.92-16.4,17.37L128.78,68.5l-.48.48H122l-.49-.48L98.58,38H89.9V68.5l-.48.48H84.69l-.48-.48V1.93l.48-.48Zm-10.61,31h9.65c8.2,0,15.72-3.86,15.72-12.64,0-8.11-5.5-12.74-14.76-12.74H89.9Z"/><path class="cls-2" d="M210.88,35.22c0,19.39-16,35.21-35.7,35.21s-35.69-15.82-35.69-35.21S155.5,0,175.18,0,210.88,15.82,210.88,35.22Zm-64.93,0A29.28,29.28,0,1,0,175.18,5.89,29.36,29.36,0,0,0,146,35.22Z"/><path class="cls-2" d="M246.57,1.45c20.75,0,35.7,15,35.7,33.77S267.32,69,246.57,69H227.86l-.49-.48V1.93l.49-.48Zm-13.5,61.94h13.5c16.69,0,29.24-12.45,29.24-28.17S263.26,7,246.57,7h-13.5Z"/><path class="cls-2" d="M303.4,1.45l.48.48V38.11c0,17,9.16,26.44,22.28,26.44s22.19-9.46,22.19-26.44V1.93l.49-.48h4.72l.49.48V39.08c0,19.77-11.48,31.35-27.89,31.35s-28-11.58-28-31.35V1.93l.49-.48Z"/><path class="cls-2" d="M428.81,14.09a35.73,35.73,0,0,0-22.67-8.2,29.33,29.33,0,0,0,0,58.66,35.79,35.79,0,0,0,22.67-8.2l.49.48V63.2a38.74,38.74,0,0,1-23.16,7.23c-19.78,0-35.7-15.92-35.7-35.21S386.36,0,406.14,0A38.68,38.68,0,0,1,429.3,7.24V13.6Z"/><path class="cls-2" d="M494.51,1.45l.48.48V6.56l-.48.48H470.78V68.5l-.48.48h-4.64l-.48-.48V7H441.45L441,6.56V1.93l.48-.48Z"/><rect class="cls-2" y="32.75" width="512" height="6"/><g class="cls-3"><path class="cls-4" d="M46,1.45c15.05,0,23.63,8.2,23.63,19.78S61.06,40.91,46,40.91H33.46V68.5L33,69H28.25l-.48-.48V1.93l.39-.48ZM33.46,35.31H46c10.8,0,17.26-5.3,17.26-14.08S56.81,7,46,7H33.46Z"/><path class="cls-4" d="M100.51,1.45c13,0,21.23,7.23,21.23,18.33,0,10.23-8.69,15.92-16.4,17.37L128.78,68.5l-.48.48H122l-.49-.48L98.58,38H89.9V68.5l-.48.48H84.69l-.48-.48V1.93l.48-.48Zm-10.61,31h9.65c8.2,0,15.72-3.86,15.72-12.64,0-8.11-5.5-12.74-14.76-12.74H89.9Z"/><path class="cls-4" d="M210.88,35.22c0,19.39-16,35.21-35.7,35.21s-35.69-15.82-35.69-35.21S155.5,0,175.18,0,210.88,15.82,210.88,35.22Zm-64.93,0A29.28,29.28,0,1,0,175.18,5.89,29.36,29.36,0,0,0,146,35.22Z"/><path class="cls-4" d="M246.57,1.45c20.75,0,35.7,15,35.7,33.77S267.32,69,246.57,69H227.86l-.49-.48V1.93l.49-.48Zm-13.5,61.94h13.5c16.69,0,29.24-12.45,29.24-28.17S263.26,7,246.57,7h-13.5Z"/><path class="cls-4" d="M303.4,1.45l.48.48V38.11c0,17,9.16,26.44,22.28,26.44s22.19-9.46,22.19-26.44V1.93l.49-.48h4.72l.49.48V39.08c0,19.77-11.48,31.35-27.89,31.35s-28-11.58-28-31.35V1.93l.49-.48Z"/><path class="cls-4" d="M428.81,14.09a35.73,35.73,0,0,0-22.67-8.2,29.33,29.33,0,0,0,0,58.66,35.79,35.79,0,0,0,22.67-8.2l.49.48V63.2a38.74,38.74,0,0,1-23.16,7.23c-19.78,0-35.7-15.92-35.7-35.21S386.36,0,406.14,0A38.68,38.68,0,0,1,429.3,7.24V13.6Z"/><path class="cls-4" d="M494.51,1.45l.48.48V6.56l-.48.48H470.78V68.5l-.48.48h-4.64l-.48-.48V7H441.45L441,6.56V1.93l.48-.48Z"/></g></svg>