<svg version="1.1" xmlns="http://www.w3.org/2000/svg" xmlns:xlink="http://www.w3.org/1999/xlink" x="0px" y="0px"
	 viewBox="0 0 65 65" style="enable-background:new 0 0 65 65;" xml:space="preserve">
<style type="text/css">
	.st0{fill:#001525;}
	.st1{clip-path:url(#SVGID_10_);}
	.st2{clip-path:url(#SVGID_20_);}
	.st3{fill:#FFFFFF;}
	.st4{fill:none;stroke:#FFFFFF;stroke-width:0.25;stroke-miterlimit:10;}
	.st5{fill:none;stroke:#001525;stroke-width:0.25;stroke-miterlimit:10;}
	.st6{fill:none;stroke:#FF0000;stroke-miterlimit:10;}
</style>
<g id="背景">
</g>
<g id="画像">
</g>
<g id="レイヤー_5">
	<path class="st0" d="M57.45,22.576c0.067-0.453,0.124-0.909,0.169-1.369c0.145-1.483-1.019-2.772-2.509-2.772H4.137
		c-1.49,0-2.654,1.289-2.509,2.772c1.392,14.234,13.395,25.358,27.995,25.358c8.958,0,16.932-4.191,22.084-10.715
		c1.209,0.862,2.684,1.375,4.279,1.375c4.079,0,7.398-3.319,7.398-7.398C63.384,26.249,60.83,23.257,57.45,22.576z M55.986,33.493
		c-0.811,0-1.559-0.268-2.167-0.716c1.208-2.033,2.17-4.229,2.838-6.551c1.702,0.316,2.995,1.809,2.995,3.601
		C59.652,31.848,58.007,33.493,55.986,33.493z"/>
</g>
<g id="補足">
</g>
</svg>
