<svg width="360" height="360" viewBox="0 0 360 360" fill="none" xmlns="http://www.w3.org/2000/svg">
<g clip-path="url(#clip0_7_372)">
<path d="M12.5286 56.09C14.7576 56.587 15.5346 57.528 15.1426 59.287C14.9836 60 14.5346 60.705 14.0736 60.967L14.4176 61.227C14.5956 61.084 14.7896 60.871 14.9526 60.633C15.2016 60.25 15.3936 59.799 15.4906 59.364C15.9216 57.431 14.9856 56.217 12.6176 55.69L4.38256 53.854C3.77256 53.718 3.44556 53.628 3.08856 53.511L2.97656 54.016C3.34956 54.062 3.68456 54.119 4.29356 54.254L12.5286 56.09Z" fill="#001525"/>
<path d="M8.48861 42.065L16.4056 50.173C16.7406 50.508 17.0616 50.875 17.3736 51.258L17.6166 50.742C17.2586 50.456 16.9236 50.121 16.5876 49.787L13.6316 46.765L16.0566 41.599L20.2696 41.941C20.7416 41.985 21.2206 42.013 21.6626 42.122L21.9056 41.605C21.4106 41.61 20.9236 41.598 20.4516 41.554L9.15561 40.645C8.68361 40.601 8.19761 40.589 7.74761 40.496L7.47461 41.078C7.83261 41.364 8.15361 41.731 8.48861 42.065ZM15.6486 41.584L13.3536 46.476L7.99861 40.97L15.6486 41.584Z" fill="#001525"/>
<path d="M23.7818 36.3809C24.1178 36.6739 24.4548 36.9669 24.7558 37.2999L25.0958 36.9099C24.7248 36.6579 24.3878 36.3649 24.0518 36.0719L15.2848 28.4329C15.7158 28.4539 16.1238 28.5019 16.5428 28.5359L29.4768 29.8459C30.0238 29.8969 30.5088 29.9639 31.0248 30.1059L31.3998 29.6749C31.0278 29.4219 30.6918 29.1289 30.3558 28.8369L22.3548 21.8659C22.0188 21.5729 21.6818 21.2809 21.3808 20.9479L21.0408 21.3379C21.4128 21.5899 21.7488 21.8829 22.0848 22.1759L30.5698 29.5689L16.8478 28.1879C16.3008 28.1369 15.7658 28.0719 15.2538 27.9819L14.7388 28.5729C15.1098 28.8259 15.4468 29.1179 15.7818 29.4109L23.7818 36.3809Z" fill="#001525"/>
<path d="M35.0245 24.816C35.1325 25.277 35.2115 25.758 35.2755 26.248L35.7535 25.937C35.5995 25.505 35.4915 25.044 35.3825 24.582L34.4635 20.455L39.2475 17.341L42.6485 19.853C43.0265 20.139 43.4195 20.416 43.7375 20.741L44.2155 20.43C43.7925 20.173 43.3855 19.907 43.0075 19.62L33.8835 12.895C33.5065 12.609 33.0975 12.342 32.7655 12.027L32.2275 12.377C32.3815 12.81 32.4595 13.29 32.5685 13.751L35.0245 24.816ZM38.9085 17.116L34.3795 20.065L32.7305 12.561L38.9085 17.116Z" fill="#001525"/>
<path d="M49.2505 16.9509C49.4115 17.3669 49.5725 17.7819 49.6845 18.2179L50.1675 18.0309C49.9565 17.6349 49.7945 17.2189 49.6325 16.8029L45.7925 6.90894C45.6315 6.49394 45.4705 6.07794 45.3585 5.64294L44.8755 5.82994C45.0865 6.22594 45.2485 6.64194 45.4095 7.05694L49.2505 16.9509Z" fill="#001525"/>
<path d="M98.0538 14.465C100.095 15.494 102.074 16.63 103.978 17.87L100.956 22.024C100.694 22.384 100.432 22.745 100.126 23.074L100.544 23.378C100.764 22.986 101.026 22.626 101.289 22.265L104.32 18.097C107.966 20.506 111.342 23.289 114.395 26.395L110.559 29.802C110.226 30.098 109.893 30.394 109.523 30.65L109.866 31.037C110.164 30.701 110.498 30.405 110.831 30.109L114.682 26.689C117.718 29.819 120.427 33.27 122.754 36.989L118.244 39.494C117.855 39.711 117.465 39.927 117.049 40.097C117.312 40.461 117.546 40.882 117.763 41.272L120.222 45.699C120.439 46.089 120.655 46.478 120.825 46.894L121.246 46.66C120.983 46.297 120.767 45.907 120.55 45.517L117.649 40.294L122.974 37.335C125.297 41.103 127.228 45.143 128.713 49.399L123.786 50.835C123.358 50.96 122.93 51.084 122.487 51.158C122.663 51.57 122.797 52.033 122.923 52.461L124.34 57.323C124.465 57.751 124.59 58.179 124.663 58.622L125.125 58.487C124.949 58.075 124.825 57.646 124.699 57.218L123.027 51.482L128.844 49.786C130.71 55.252 131.844 61.068 132.119 67.126L132.518 67.108C132.241 61.018 131.102 55.17 129.228 49.674L135.064 47.973L136.661 53.452C136.786 53.88 136.911 54.308 136.984 54.751L137.446 54.617C137.27 54.204 137.145 53.776 137.02 53.348L135.677 48.742C135.553 48.315 135.417 47.852 135.344 47.409C134.913 47.591 134.485 47.716 134.058 47.84L129.097 49.286C127.604 45.001 125.661 40.933 123.324 37.139L128.609 34.202L131.381 39.191C131.597 39.58 131.814 39.97 131.984 40.386L132.405 40.152C132.142 39.788 131.925 39.398 131.708 39.009L129.378 34.815C129.161 34.426 128.927 34.005 128.757 33.589C128.377 33.861 127.988 34.077 127.599 34.293L123.104 36.79C120.763 33.045 118.037 29.57 114.982 26.418L119.487 22.417L123.265 26.672C123.562 27.005 123.857 27.338 124.114 27.707L124.474 27.387C124.138 27.089 123.841 26.755 123.546 26.423L120.371 22.848C120.075 22.515 119.756 22.155 119.499 21.786C119.201 22.122 118.867 22.419 118.534 22.714L114.695 26.124C111.623 22.996 108.225 20.194 104.556 17.768L108.097 12.899L112.698 16.246C113.058 16.508 113.419 16.771 113.748 17.076L114.031 16.686C113.639 16.467 113.279 16.205 112.918 15.943L109.052 13.131C108.692 12.869 108.302 12.585 107.973 12.28C107.754 12.672 107.492 13.033 107.23 13.393L104.213 17.54C102.284 16.283 100.28 15.132 98.2108 14.09C98.2158 14.078 98.2218 14.066 98.2268 14.054C99.7488 10.149 98.5768 6.91696 95.1378 5.57596C91.7518 4.25696 88.6548 5.88796 87.1108 9.77496C82.1238 8.36796 76.8858 7.55996 71.4788 7.43596C71.8788 3.58296 74.2358 1.34196 77.4398 1.66596C79.0368 1.82796 80.2358 2.37896 81.0318 3.35596C81.4468 3.86396 81.7438 4.46796 81.9578 5.18896L82.4458 4.96896C82.1418 4.25596 81.8088 3.64896 81.3768 3.13996C80.4828 2.06296 79.2158 1.46896 77.4958 1.29396C74.0538 0.944964 71.4738 3.40796 71.0668 7.41896C71.0668 7.42296 71.0668 7.42596 71.0658 7.42996C70.7128 7.42396 70.3598 7.41696 70.0048 7.41696C66.8178 7.41696 63.6168 7.65896 60.4888 8.13596L60.5488 8.53096C63.6568 8.05696 66.8378 7.81596 70.0048 7.81596C70.3508 7.81596 70.6948 7.82296 71.0388 7.82896C70.7768 11.856 72.7828 14.529 76.4208 14.898C78.2128 15.08 79.6068 14.593 80.8568 13.393C81.1748 13.085 81.5198 12.69 81.8328 12.255L81.5198 11.99C81.1638 12.492 80.8758 12.857 80.5778 13.149C79.3518 14.279 78.0918 14.689 76.4588 14.524C73.0388 14.178 71.1858 11.697 71.4488 7.83296C76.8178 7.95496 82.0188 8.75496 86.9718 10.15C85.6358 13.9 86.8268 17 90.1758 18.305C93.4638 19.593 96.4678 18.105 98.0538 14.465ZM95.0028 5.93196C98.2428 7.19496 99.2908 10.205 97.8478 13.911C94.5558 12.28 91.0988 10.933 87.5098 9.89496C88.9968 6.18596 91.8098 4.68796 95.0028 5.93196ZM87.3688 10.271C90.9518 11.306 94.4038 12.65 97.6888 14.279C96.1748 17.792 93.4298 19.177 90.3138 17.963C87.1528 16.732 86.0738 13.866 87.3688 10.271Z" fill="#001525"/>
<path d="M127.569 84.026C125.341 83.527 124.565 82.586 124.959 80.828C125.119 80.115 125.569 79.411 126.029 79.149L125.685 78.889C125.506 79.032 125.313 79.245 125.15 79.482C124.9 79.865 124.707 80.316 124.61 80.75C124.178 82.682 125.112 83.896 127.479 84.426L135.711 86.27C136.32 86.406 136.647 86.498 137.004 86.614L137.117 86.11C136.744 86.063 136.409 86.006 135.8 85.87L127.569 84.026Z" fill="#001525"/>
<path d="M131.593 98.054L123.685 89.938C123.35 89.603 123.03 89.235 122.718 88.852L122.475 89.368C122.833 89.655 123.168 89.99 123.503 90.325L126.454 93.349L124.025 98.513L119.812 98.167C119.34 98.123 118.861 98.094 118.42 97.985L118.177 98.501C118.672 98.497 119.158 98.509 119.63 98.554L130.925 99.473C131.397 99.517 131.883 99.53 132.332 99.623L132.606 99.042C132.248 98.757 131.928 98.389 131.593 98.054ZM124.433 98.529L126.733 93.639L132.082 99.152L124.433 98.529Z" fill="#001525"/>
<path d="M116.286 103.731C115.95 103.438 115.614 103.144 115.314 102.811L114.974 103.2C115.345 103.453 115.681 103.746 116.017 104.04L124.774 111.69C124.343 111.668 123.936 111.62 123.516 111.585L110.585 110.259C110.038 110.207 109.553 110.139 109.038 109.997L108.663 110.427C109.034 110.68 109.37 110.973 109.705 111.266L117.697 118.247C118.033 118.54 118.369 118.834 118.67 119.167L119.01 118.778C118.639 118.524 118.303 118.231 117.967 117.938L109.492 110.535L123.212 111.934C123.759 111.986 124.294 112.051 124.806 112.143L125.322 111.552C124.951 111.299 124.616 111.005 124.28 110.712L116.286 103.731Z" fill="#001525"/>
<path d="M105.037 115.274C104.929 114.813 104.852 114.332 104.788 113.842L104.309 114.152C104.462 114.585 104.57 115.046 104.678 115.507L105.591 119.634L100.804 122.74L97.4078 120.226C97.0308 119.939 96.6388 119.662 96.3208 119.336L95.8418 119.647C96.2638 119.905 96.6708 120.172 97.0488 120.458L106.16 127.194C106.537 127.48 106.945 127.747 107.277 128.063L107.815 127.714C107.662 127.282 107.584 126.801 107.476 126.34L105.037 115.274ZM101.144 122.966L105.676 120.025L107.314 127.528L101.144 122.966Z" fill="#001525"/>
<path d="M90.8007 123.124C90.6397 122.709 90.4787 122.293 90.3687 121.857L89.8867 122.043C90.0977 122.44 90.2577 122.855 90.4187 123.271L94.2447 133.17C94.4057 133.586 94.5657 134.002 94.6777 134.437L95.1607 134.251C94.9497 133.854 94.7887 133.438 94.6287 133.022L90.8007 123.124Z" fill="#001525"/>
<path d="M70.0077 132.176C69.5437 132.176 69.0817 132.17 68.6197 132.159C68.8917 128.16 66.9077 125.492 63.2867 125.098C61.4957 124.903 60.0987 125.38 58.8387 126.57C58.5187 126.876 58.1707 127.269 57.8547 127.701L58.1667 127.968C58.5257 127.469 58.8167 127.106 59.1177 126.816C60.3517 125.695 61.6147 125.294 63.2467 125.472C66.6487 125.842 68.4817 128.316 68.2107 132.148C62.9087 131.997 57.7107 131.181 52.7167 129.741C54.0637 126.013 52.8927 122.917 49.5627 121.591C46.2927 120.289 43.2827 121.747 41.6657 125.361C39.6437 124.324 37.6757 123.172 35.7707 121.91L38.8087 117.799C39.0737 117.44 39.3387 117.081 39.6467 116.755L39.2317 116.448C39.0097 116.838 38.7447 117.197 38.4797 117.555L35.4297 121.683C32.4107 119.656 29.5487 117.355 26.8807 114.786C26.3787 114.303 25.8897 113.81 25.4057 113.312L29.2557 109.943C29.5917 109.649 29.9267 109.356 30.2977 109.103L29.9577 108.714C29.6577 109.048 29.3217 109.342 28.9867 109.634L25.1217 113.016C22.0687 109.834 19.3877 106.373 17.1057 102.691L21.6537 100.207C22.0447 99.994 22.4367 99.78 22.8537 99.613C22.5937 99.247 22.3627 98.824 22.1487 98.433L19.7207 93.987C19.5077 93.595 19.2937 93.203 19.1267 92.786L18.7037 93.017C18.9647 93.383 19.1777 93.775 19.3917 94.166L22.2547 99.411L16.8897 102.341C14.5557 98.519 12.6487 94.463 11.1967 90.236L16.1917 88.818C16.6207 88.696 17.0497 88.574 17.4937 88.505C17.3207 88.09 17.1887 87.628 17.0677 87.198L15.6847 82.325C15.5637 81.897 15.4417 81.467 15.3717 81.024L14.9087 81.155C15.0817 81.569 15.2037 81.998 15.3257 82.427L16.9567 88.174L11.0667 89.846C9.20669 84.309 8.12469 78.485 7.88769 72.513L7.48869 72.529C7.72769 78.533 8.81469 84.389 10.6827 89.955L4.88969 91.599L3.33169 86.108C3.20969 85.679 3.08769 85.251 3.01769 84.807L2.55469 84.938C2.72769 85.353 2.84969 85.781 2.97169 86.21L4.28169 90.825C4.40369 91.253 4.53469 91.717 4.60469 92.16C5.03669 91.982 5.46569 91.861 5.89369 91.738L10.8087 90.343C12.2677 94.599 14.1867 98.682 16.5357 102.53L11.2457 105.419L8.50969 100.408C8.29669 100.016 8.08269 99.625 7.91569 99.208L7.49269 99.438C7.75269 99.804 7.96669 100.195 8.18069 100.587L10.4807 104.8C10.6947 105.19 10.9257 105.614 11.0917 106.03C11.4727 105.761 11.8647 105.547 12.2567 105.334L16.7517 102.879C19.0477 106.587 21.7447 110.072 24.8177 113.276L20.2757 117.25L16.5307 112.969C16.2367 112.634 15.9437 112.298 15.6907 111.928L15.3287 112.245C15.6627 112.545 15.9557 112.881 16.2487 113.217L19.3957 116.814C19.6897 117.149 20.0057 117.512 20.2597 117.882C20.5597 117.548 20.8957 117.254 21.2307 116.961L25.1037 113.572C25.5947 114.078 26.0917 114.579 26.6017 115.07C29.2817 117.651 32.1567 119.964 35.1897 122.001L31.5987 126.861L27.0227 123.479C26.6647 123.214 26.3057 122.949 25.9787 122.641L25.6927 123.028C26.0837 123.25 26.4417 123.515 26.8007 123.78L30.6447 126.62C31.0037 126.885 31.3907 127.171 31.7177 127.479C31.9397 127.089 32.2047 126.73 32.4697 126.372L35.5317 122.228C37.4617 123.506 39.4557 124.673 41.5037 125.723C41.4957 125.742 41.4867 125.76 41.4787 125.779C39.9287 129.673 41.0767 132.914 44.5067 134.28C47.8917 135.628 51.0077 134.008 52.5767 130.112C57.6057 131.565 62.8397 132.388 68.1797 132.541C68.1787 132.55 68.1787 132.558 68.1777 132.568C67.7567 136.433 65.3797 138.667 62.1697 138.318C60.5747 138.145 59.3797 137.584 58.5897 136.601C58.1787 136.09 57.8857 135.485 57.6767 134.762L57.1877 134.978C57.4867 135.693 57.8147 136.301 58.2437 136.815C59.1307 137.898 60.3927 138.501 62.1117 138.688C65.5507 139.062 68.1487 136.618 68.5847 132.612C68.5867 132.592 68.5867 132.573 68.5887 132.553C69.0607 132.563 69.5337 132.57 70.0067 132.57C73.1957 132.57 76.3967 132.328 79.5227 131.851L79.4627 131.455C76.3567 131.935 73.1757 132.176 70.0077 132.176ZM49.4217 121.939C52.5667 123.192 53.6267 126.055 52.3197 129.629C48.7717 128.58 45.3307 127.212 42.0297 125.546C43.5717 122.06 46.3217 120.704 49.4217 121.939ZM44.6447 133.937C41.4127 132.651 40.3877 129.631 41.8597 125.936C41.8627 125.928 41.8667 125.921 41.8697 125.913C45.1777 127.581 48.6247 128.952 52.1787 130.004C50.6657 133.722 47.8357 135.208 44.6447 133.937Z" fill="#001525"/>
</g>
<defs>
<clipPath id="clip0_7_372">
<rect width="360" height="360" fill="white"/>
</clipPath>
</defs>
</svg>
