<svg version="1.1" xmlns="http://www.w3.org/2000/svg" xmlns:xlink="http://www.w3.org/1999/xlink" x="0px" y="0px"
	 viewBox="0 0 122 10" style="enable-background:new 0 0 122 10;" xml:space="preserve">
<style type="text/css">
	.st0{fill:#001525;}
	.st1{clip-path:url(#SVGID_10_);}
	.st2{clip-path:url(#SVGID_20_);}
	.st3{fill:#FFFFFF;}
	.st4{fill:none;stroke:#FFFFFF;stroke-width:0.25;stroke-miterlimit:10;}
	.st5{fill:none;stroke:#001525;stroke-width:0.25;stroke-miterlimit:10;}
	.st6{fill:none;stroke:#FF0000;stroke-miterlimit:10;}
</style>
<g id="背景">
</g>
<g id="画像">
</g>
<g id="レイヤー_5">
	<g>
		<g>
			<g>
				<path class="st0" d="M24.437,0.757c-0.023,0.239-0.034,0.456-0.034,0.854v5.388c0,1.549-0.627,2.301-1.891,2.301
					c-0.285,0-0.592-0.057-0.866-0.159c-0.171-0.068-0.33-0.16-0.444-0.251l0.114-0.251c0.228,0.251,0.729,0.433,1.196,0.433
					c1.15,0,1.629-0.615,1.629-2.073V1.611c0-0.399-0.012-0.615-0.034-0.854H24.437z"/>
				<path class="st0" d="M34.687,8.389c0.102,0.285,0.228,0.569,0.364,0.854h-0.364c-0.057-0.285-0.171-0.569-0.274-0.854
					L33.468,5.86h-3.645l-0.945,2.529c-0.102,0.285-0.205,0.569-0.273,0.854H28.24c0.137-0.285,0.262-0.569,0.365-0.854l2.54-6.777
					c0.102-0.285,0.228-0.569,0.296-0.854h0.41c0.068,0.285,0.193,0.569,0.296,0.854L34.687,8.389z M33.365,5.621l-1.72-4.591
					l-1.732,4.591H33.365z"/>
				<path class="st0" d="M45.289,8.389c0,0.285,0,0.569,0.034,0.854h-0.364c-0.148-0.307-0.319-0.569-0.524-0.854l-4.795-6.777
					c-0.16-0.216-0.308-0.433-0.479-0.649v7.427c0,0.285,0,0.569,0.034,0.854h-0.33c0.034-0.285,0.034-0.569,0.034-0.854V1.611
					c0-0.285,0-0.569-0.034-0.854h0.501c0.171,0.285,0.365,0.569,0.57,0.854l5.091,7.188V1.611c0-0.285,0-0.569-0.034-0.854h0.33
					c-0.034,0.285-0.034,0.569-0.034,0.854V8.389z"/>
				<path class="st0" d="M55.584,8.389c0.102,0.285,0.228,0.569,0.364,0.854h-0.364c-0.057-0.285-0.171-0.569-0.274-0.854
					L54.365,5.86H50.72l-0.945,2.529c-0.102,0.285-0.205,0.569-0.273,0.854h-0.365c0.137-0.285,0.262-0.569,0.365-0.854l2.54-6.777
					c0.102-0.285,0.228-0.569,0.296-0.854h0.41c0.068,0.285,0.193,0.569,0.296,0.854L55.584,8.389z M54.262,5.621l-1.72-4.591
					l-1.732,4.591H54.262z"/>
				<path class="st0" d="M60.434,0.757c-0.034,0.285-0.034,0.569-0.034,0.854v6.777c0,0.285,0,0.569,0.034,0.854h-0.33
					c0.034-0.285,0.034-0.569,0.034-0.854V1.611c0-0.285,0-0.569-0.034-0.854H60.434z"/>
			</g>
			<path class="st0" d="M121.236,5.128V4.872h-6.778v-3.87h3.645c0.285,0,0.57,0,0.854,0.034V0.728
				c-0.285,0.034-0.569,0.034-0.854,0.034h-3.064c-0.285,0-0.592,0-0.877-0.034c0.034,0.296,0.034,0.581,0.034,0.866v3.278h-8.062
				v-3.87h3.645c0.285,0,0.57,0,0.854,0.034V0.728c-0.285,0.034-0.569,0.034-0.854,0.034h-3.064c-0.285,0-0.592,0-0.877-0.034
				c0.034,0.296,0.034,0.581,0.034,0.866v3.278h-7.88v-3.87h3.634c0.285,0,0.569,0,0.854,0.034V0.728
				c-0.285,0.034-0.569,0.034-0.854,0.034h-3.053c-0.285,0-0.592,0-0.877-0.034c0.034,0.285,0.034,0.57,0.034,0.854v3.29h-7.88
				v-3.87h3.634c0.285,0,0.569,0,0.854,0.034V0.728c-0.285,0.034-0.569,0.034-0.854,0.034H90.43c-0.285,0-0.592,0-0.877-0.034
				c0.034,0.285,0.034,0.57,0.034,0.854v3.29h-3.794c-0.034-2.62-1.471-4.235-3.801-4.235c-2.284,0-3.736,1.637-3.799,4.235h-9.455
				c0.03-2.435,1.376-3.984,3.414-3.984c1.025,0,1.822,0.273,2.392,0.843c0.296,0.296,0.524,0.661,0.706,1.105l0.296-0.171
				c-0.239-0.433-0.49-0.797-0.797-1.093c-0.638-0.627-1.481-0.923-2.586-0.923c-2.186,0-3.656,1.696-3.688,4.224h-2.791v0.255
				h2.794c0.062,2.63,1.516,4.235,3.878,4.235c1.15,0,2.004-0.399,2.722-1.242c0.182-0.216,0.376-0.49,0.547-0.786l-0.216-0.148
				c-0.194,0.342-0.353,0.592-0.524,0.797c-0.706,0.797-1.481,1.139-2.528,1.139c-2.215,0-3.557-1.483-3.617-3.996h9.449
				c0.03,2.616,1.469,4.235,3.802,4.235c2.287,0,3.74-1.631,3.799-4.235h3.796v3.267c0,0.285,0,0.569-0.034,0.854h0.33
				c-0.034-0.285-0.034-0.569-0.034-0.854V5.128h7.88v3.267c0,0.285,0,0.569-0.034,0.854h0.33c-0.034-0.285-0.034-0.569-0.034-0.854
				V5.128h7.88v3.301c0,0.285,0,0.569-0.034,0.854c0.285-0.034,0.592-0.034,0.877-0.034h3.235c0.285,0,0.57,0,0.854,0.034V8.975
				c-0.285,0.034-0.569,0.034-0.854,0.034h-3.816V5.128h8.062v3.301c0,0.285,0,0.569-0.034,0.854
				c0.285-0.034,0.592-0.034,0.877-0.034h3.235c0.285,0,0.57,0,0.854,0.034V8.975c-0.285,0.034-0.569,0.034-0.854,0.034h-3.816
				V5.128H121.236z M81.993,0.877c2.193,0,3.506,1.512,3.539,3.996h-7.076C78.515,2.38,79.833,0.877,81.993,0.877z M81.993,9.123
				c-2.197,0-3.511-1.495-3.54-3.996h7.077C85.474,7.626,84.155,9.123,81.993,9.123z"/>
		</g>
		<path class="st0" d="M13.592,3.054C13.607,2.95,13.62,2.845,13.63,2.74c0.033-0.341-0.234-0.637-0.576-0.637H1.343
			c-0.342,0-0.61,0.296-0.576,0.637c0.32,3.27,3.077,5.826,6.432,5.826c2.058,0,3.89-0.963,5.074-2.462
			c0.278,0.198,0.617,0.316,0.983,0.316c0.937,0,1.7-0.762,1.7-1.7C14.955,3.898,14.368,3.211,13.592,3.054z M13.255,5.562
			c-0.186,0-0.358-0.062-0.498-0.164c0.278-0.467,0.498-0.972,0.652-1.505c0.391,0.073,0.688,0.416,0.688,0.827
			C14.098,5.184,13.72,5.562,13.255,5.562z"/>
	</g>
</g>
<g id="補足">
</g>
</svg>
