<svg id="design-logo-yoko" xmlns="http://www.w3.org/2000/svg" viewBox="0 0 1118.25 227.417"><defs><div is="style">#design-logo-yoko .cls-1{fill:none;}#design-logo-yoko .cls-2{fill:#fff;}</div></defs><title>JANAI COFFEE</title><rect class="cls-1" x="963.315" y="103.8" width="72.164" height="0.005"/><polygon class="cls-1" points="613.607 103.806 613.608 103.8 519.726 103.8 519.725 103.806 613.607 103.806"/><rect class="cls-1" x="885.675" y="103.8" width="69.445" height="0.005"/><path class="cls-1" d="M621.639,114.708c0,22.77,19.028,41.2,42.076,41.2,23.188,0,42.216-18.433,42.216-41.2,0-.992-.049-1.973-.12-2.948H621.759C621.688,112.735,621.639,113.716,621.639,114.708Z"/><polygon class="cls-1" points="704.417 103.806 704.416 103.8 623.153 103.8 623.151 103.806 704.417 103.806"/><rect class="cls-1" x="737.936" y="103.8" width="68.848" height="0.005"/><polygon class="cls-1" points="729.741 103.806 729.741 103.8 713.817 103.8 713.819 103.806 729.741 103.806"/><rect class="cls-1" x="814.979" y="103.8" width="62.5" height="0.005"/><polygon class="cls-1" points="510.267 103.806 510.268 103.8 487.604 103.8 487.604 111.755 487.607 111.755 487.607 103.806 510.267 103.806"/><polygon class="cls-1" points="169.655 124.192 208.812 124.192 189.236 75.674 169.655 124.192"/><polygon class="cls-1" points="369.683 124.192 408.845 124.192 389.264 75.674 369.683 124.192"/><path class="cls-1" d="M704.417,103.8a42.4,42.4,0,0,0-81.264,0h81.264Z"/><path d="M124.563,65.24l-.7.678v66.543c0,15.043-7.08,21.411-17.633,21.411-7.08,0-13.331-3.794-16.108-12.6h-.972l-6.385,3.116c3.472,12.063,12.5,17.755,23.465,17.755,15.273,0,25.69-10.164,25.69-27.106V65.918l-.694-.678Z"/><path d="M192.844,65.24h-7.357l-.694.678-38.6,93.511.694.678h7.5l.695-.678,11.247-27.376h45.683L223.4,159.429l.694.678h7.357l.695-.678-38.6-93.511Zm-23.189,58.952,19.581-48.518,19.576,48.518Z"/><polygon points="321.37 65.24 320.675 65.918 320.675 147.639 257.907 65.918 256.518 65.24 249.161 65.24 248.466 65.918 248.466 159.429 249.161 160.107 255.965 160.107 256.659 159.429 256.659 77.708 319.563 159.429 320.952 160.107 328.174 160.107 328.868 159.429 328.868 65.918 328.174 65.24 321.37 65.24"/><path d="M392.872,65.24h-7.357l-.695.678-38.6,93.511.695.678h7.5l.694-.678,11.248-27.376h45.683l11.388,27.376.695.678h7.357l.694-.678-38.6-93.511Zm-23.189,58.952,19.581-48.518,19.581,48.518Z"/><polygon points="451.232 65.24 450.538 65.918 450.538 159.429 451.232 160.107 458.041 160.107 458.73 159.429 458.73 65.918 458.041 65.24 451.232 65.24"/><path d="M509.417,112.708c0,27.107,22.912,49.468,51.38,49.468,13.19,0,24.3-3.8,33.324-10.166v-8.944l-.695-.678A52.247,52.247,0,0,1,560.8,153.911c-23.053,0-42.075-18.433-42.075-41.2,0-.318.017-.632.024-.948h-9.3C509.435,112.076,509.417,112.39,509.417,112.708Z"/><path d="M519.726,103.8c4.192-18.478,21.116-32.289,41.071-32.289a52.276,52.276,0,0,1,32.629,11.517l.695-.677V73.407c-9.028-6.37-20.134-10.167-33.324-10.167-25.277,0-46.158,17.634-50.526,40.56h9.455Z"/><polygon points="519.722 103.806 519.725 103.806 519.726 103.8 519.723 103.8 519.722 103.806"/><polygon points="713.818 103.806 713.819 103.806 713.817 103.8 713.816 103.8 713.818 103.806"/><path d="M623.153,103.8a42.4,42.4,0,0,1,81.264,0h9.4c-5.18-22.021-25.673-38.56-50.1-38.56s-44.923,16.539-50.1,38.56h9.541Z"/><path d="M705.931,114.708c0,22.77-19.028,41.2-42.216,41.2-23.048,0-42.076-18.433-42.076-41.2,0-.992.049-1.973.12-2.948h-9.325c-.06.976-.1,1.958-.1,2.948,0,27.244,23.054,49.468,51.381,49.468s51.38-22.224,51.38-49.468c0-.99-.04-1.972-.1-2.948h-9.184C705.882,112.735,705.931,113.716,705.931,114.708Z"/><polygon points="623.153 103.8 623.149 103.8 623.147 103.806 623.151 103.806 623.153 103.8"/><rect x="737.934" y="103.8" width="0.002" height="0.005"/><polygon points="737.936 103.8 737.936 73.104 783.066 73.104 783.761 72.426 783.761 65.918 783.066 65.24 730.438 65.24 729.744 65.918 729.744 103.8 737.934 103.8 737.936 103.8"/><polygon points="729.744 159.432 730.438 160.11 737.242 160.11 737.936 159.432 737.936 111.865 771.955 111.865 772.062 111.76 729.744 111.76 729.744 159.432"/><polygon points="806.787 159.432 807.481 160.11 814.29 160.11 814.979 159.432 814.979 111.865 849.003 111.865 849.111 111.76 806.787 111.76 806.787 159.432"/><rect x="814.977" y="103.8" width="0.002" height="0.005"/><polygon points="814.979 103.8 814.979 73.104 860.109 73.104 860.804 72.426 860.804 65.918 860.109 65.24 807.481 65.24 806.787 65.918 806.787 103.8 814.977 103.8 814.979 103.8"/><polygon points="885.675 103.8 885.675 73.104 930.804 73.104 931.499 72.426 931.499 65.918 930.804 65.24 878.176 65.24 877.482 65.918 877.482 103.8 885.672 103.8 885.675 103.8"/><rect x="885.672" y="103.8" width="0.002" height="0.005"/><polygon points="877.482 159.432 878.176 160.11 934.971 160.11 935.666 159.432 935.666 152.929 934.971 152.252 885.675 152.252 885.675 111.865 919.698 111.865 919.806 111.76 877.482 111.76 877.482 159.432"/><polygon points="997.338 111.865 997.446 111.76 955.122 111.76 955.122 159.432 955.816 160.11 1012.611 160.11 1013.306 159.432 1013.306 152.929 1012.611 152.252 963.315 152.252 963.315 111.865 997.338 111.865"/><polygon points="963.315 103.8 963.315 73.104 1008.444 73.104 1009.139 72.426 1009.139 65.918 1008.444 65.24 955.816 65.24 955.122 65.918 955.122 103.8 963.312 103.8 963.315 103.8"/><rect x="963.312" y="103.8" width="0.002" height="0.005"/><polygon points="729.741 111.755 714.995 111.755 714.995 111.76 729.744 111.76 729.744 111.755 729.741 111.755"/><polygon points="806.785 111.755 772.068 111.755 772.062 111.76 806.787 111.76 806.787 111.755 806.785 111.755"/><polygon points="877.48 111.755 849.116 111.755 849.111 111.76 877.482 111.76 877.482 111.755 877.48 111.755"/><polygon points="621.76 111.755 621.759 111.76 705.811 111.76 705.81 111.755 705.809 111.755 621.76 111.755"/><polygon points="885.675 103.806 885.675 103.996 919.696 103.996 920.391 104.674 920.391 104.677 920.393 104.679 920.393 111.187 919.811 111.755 955.12 111.755 955.12 103.806 885.675 103.806"/><polygon points="963.315 103.996 997.336 103.996 998.03 104.674 998.03 104.677 998.033 104.679 998.033 111.187 997.451 111.755 1035.478 111.755 1035.478 103.806 963.315 103.806 963.315 103.996"/><polygon points="737.936 103.806 737.936 103.996 771.952 103.996 772.647 104.674 772.647 104.677 772.649 104.679 772.649 111.187 772.068 111.755 806.785 111.755 806.785 103.806 737.936 103.806"/><path d="M713.819,103.806A47.519,47.519,0,0,1,715,111.755h14.746v-7.949Z"/><polygon points="814.979 103.806 814.979 103.996 849.001 103.996 849.695 104.674 849.695 104.677 849.698 104.679 849.698 111.187 849.116 111.755 877.48 111.755 877.48 103.806 814.979 103.806"/><path d="M519.725,103.806a40.19,40.19,0,0,0-.979,7.949h93.686a47.4,47.4,0,0,1,1.175-7.949Z"/><path d="M704.417,103.806H623.151a40.049,40.049,0,0,0-1.391,7.949h84.049A40.05,40.05,0,0,0,704.417,103.806Z"/><polygon points="509.439 111.755 487.607 111.755 487.607 111.76 509.442 111.76 509.442 111.755 509.439 111.755"/><polygon points="955.12 111.755 919.811 111.755 919.806 111.76 955.122 111.76 955.122 111.755 955.12 111.755"/><polygon points="997.451 111.755 997.446 111.76 1035.48 111.76 1035.48 103.806 1035.478 103.806 1035.478 111.755 997.451 111.755"/><path d="M510.267,103.806h-22.66v7.949h21.832A47.515,47.515,0,0,1,510.267,103.806Z"/><polygon points="612.432 111.755 518.746 111.755 518.746 111.76 612.434 111.76 612.434 111.755 612.432 111.755"/><path d="M519.722,103.806a40.189,40.189,0,0,0-.978,7.949h0a40.19,40.19,0,0,1,.979-7.949Z"/><polygon points="518.744 111.755 509.442 111.755 509.442 111.76 518.746 111.76 518.746 111.755 518.744 111.755"/><path d="M623.147,103.806a40.048,40.048,0,0,0-1.39,7.949h0a40.049,40.049,0,0,1,1.391-7.949Z"/><path d="M713.818,103.806a47.5,47.5,0,0,1,1.175,7.949h0a47.519,47.519,0,0,0-1.176-7.949Z"/><polygon points="714.993 111.755 705.81 111.755 705.811 111.76 714.995 111.76 714.995 111.755 714.993 111.755"/><polygon points="621.76 111.755 621.757 111.755 612.434 111.755 612.434 111.76 621.759 111.76 621.76 111.755"/><polygon points="772.06 111.755 729.744 111.755 729.744 111.76 772.062 111.76 772.068 111.755 772.06 111.755"/><rect x="737.934" y="103.806" width="0.002" height="0.19"/><polygon points="772.649 104.679 772.647 104.677 772.647 111.182 772.06 111.755 772.068 111.755 772.649 111.187 772.649 104.679"/><polygon points="849.698 104.679 849.695 104.677 849.695 111.182 849.108 111.755 849.116 111.755 849.698 111.187 849.698 104.679"/><rect x="814.977" y="103.806" width="0.002" height="0.19"/><polygon points="849.108 111.755 806.787 111.755 806.787 111.76 849.111 111.76 849.116 111.755 849.108 111.755"/><polygon points="920.393 104.679 920.391 104.677 920.391 111.182 919.804 111.755 919.811 111.755 920.393 111.187 920.393 104.679"/><polygon points="919.804 111.755 877.482 111.755 877.482 111.76 919.806 111.76 919.811 111.755 919.804 111.755"/><rect x="885.672" y="103.806" width="0.002" height="0.19"/><polygon points="997.451 111.755 997.443 111.755 955.122 111.755 955.122 111.76 997.446 111.76 997.451 111.755"/><polygon points="998.033 104.679 998.03 104.677 998.03 111.182 997.443 111.755 997.451 111.755 998.033 111.187 998.033 104.679"/><rect x="963.312" y="103.806" width="0.002" height="0.19"/><polygon class="cls-2" points="510.27 103.806 510.271 103.8 510.268 103.8 510.267 103.806 510.27 103.806"/><polygon class="cls-2" points="704.417 103.806 704.418 103.806 704.417 103.8 704.416 103.8 704.417 103.806"/><polygon class="cls-2" points="613.61 103.806 613.612 103.8 613.608 103.8 613.607 103.806 613.61 103.806"/><rect class="cls-1" x="729.741" y="103.8" width="0.002" height="0.005"/><rect x="729.744" y="103.8" width="8.19" height="0.005"/><polygon points="771.955 104.001 772.647 104.677 772.647 104.674 771.952 103.996 737.936 103.996 737.936 104.001 771.955 104.001"/><rect x="729.741" y="103.806" width="0.002" height="7.949"/><polygon points="772.647 104.677 771.955 104.001 737.936 104.001 737.936 103.996 737.934 103.996 737.934 103.806 729.744 103.806 729.744 111.755 772.06 111.755 772.647 111.182 772.647 104.677"/><rect class="cls-1" x="806.785" y="103.8" width="0.002" height="0.005"/><rect x="806.787" y="103.8" width="8.19" height="0.005"/><polygon points="849.003 104.001 849.695 104.677 849.695 104.674 849.001 103.996 814.979 103.996 814.979 104.001 849.003 104.001"/><rect x="806.785" y="103.806" width="0.002" height="7.949"/><polygon points="849.695 104.677 849.003 104.001 814.979 104.001 814.979 103.996 814.977 103.996 814.977 103.806 806.787 103.806 806.787 111.755 849.108 111.755 849.695 111.182 849.695 104.677"/><rect class="cls-1" x="877.48" y="103.8" width="0.002" height="0.005"/><rect x="877.482" y="103.8" width="8.19" height="0.005"/><polygon points="919.698 104.001 920.391 104.677 920.391 104.674 919.696 103.996 885.675 103.996 885.675 104.001 919.698 104.001"/><rect x="877.48" y="103.806" width="0.002" height="7.949"/><polygon points="920.391 104.677 919.698 104.001 885.675 104.001 885.675 103.996 885.672 103.996 885.672 103.806 877.482 103.806 877.482 111.755 919.804 111.755 920.391 111.182 920.391 104.677"/><rect class="cls-1" x="955.12" y="103.8" width="0.002" height="0.005"/><rect x="955.122" y="103.8" width="8.19" height="0.005"/><rect x="955.12" y="103.806" width="0.002" height="7.949"/><polygon points="997.338 104.001 998.03 104.677 998.03 104.674 997.336 103.996 963.315 103.996 963.315 104.001 997.338 104.001"/><polygon points="998.03 104.677 997.338 104.001 963.315 104.001 963.315 103.996 963.312 103.996 963.312 103.806 955.122 103.806 955.122 111.755 997.443 111.755 998.03 111.182 998.03 104.677"/></svg>